<svg xmlns="http://www.w3.org/2000/svg" version="1.0" width="1024.000000pt" height="1024.000000pt" viewBox="0 0 1024.000000 1024.000000" preserveAspectRatio="xMidYMid meet">

<g transform="translate(0.000000,1024.000000) scale(0.100000,-0.100000)" fill="#8c8686" stroke="none">
<path d="M4726 8499 c-407 -47 -797 -242 -1111 -557 -391 -391 -554 -776 -591 -1392 -15 -263 42 -590 156 -894 44 -116 119 -280 126 -273 3 2 14 57 25 120 77 456 306 1006 605 1457 308 464 766 795 1281 924 147 37 204 45 378 55 202 11 389 0 624 -39 101 -17 186 -29 188 -27 2 2 -32 37 -75 78 -380 364 -877 562 -1395 558 -78 -1 -173 -5 -211 -10z" fill="#8c8686"/>
<path d="M3010 7571 c-312 -157 -536 -332 -726 -567 -206 -256 -326 -506 -391 -813 -25 -116 -27 -145 -27 -366 -1 -271 13 -373 80 -574 143 -425 457 -821 854 -1076 231 -149 560 -268 885 -322 125 -20 536 -26 567 -7 15 8 0 19 -85 64 -252 132 -440 267 -628 448 -446 429 -714 919 -811 1482 -29 165 -32 519 -5 678 62 377 141 597 338 942 108 189 103 180 92 180 -4 -1 -69 -31 -143 -69z" fill="#8c8686"/>
<path d="M5806 7619 c-419 -32 -787 -175 -1107 -430 -85 -68 -389 -371 -409 -408 -10 -19 -9 -19 58 0 170 50 356 90 485 105 188 22 523 15 717 -15 892 -137 1509 -489 1893 -1081 159 -246 263 -498 378 -919 29 -102 53 -187 54 -189 8 -9 71 182 105 313 53 209 70 342 70 544 0 274 -42 503 -136 741 -145 365 -374 661 -699 905 -322 241 -729 401 -1106 435 -126 11 -146 11 -303 -1z" fill="#8c8686"/>
<path d="M6924 5824 c59 -229 77 -377 83 -664 8 -352 -13 -612 -73 -914 -134 -675 -483 -1249 -994 -1635 -197 -148 -384 -248 -690 -366 -69 -27 -127 -50 -129 -52 -26 -20 249 -53 446 -53 206 0 359 18 549 65 562 139 1004 445 1299 898 226 348 352 834 317 1220 -31 333 -135 632 -335 960 -126 205 -348 477 -450 549 l-30 22 7 -30z" fill="#8c8686"/>
<path d="M3730 5689 c-40 -16 -89 -58 -106 -91 -22 -43 -13 -114 23 -180 31 -57 180 -213 267 -278 31 -23 56 -46 56 -51 0 -5 -49 -82 -109 -172 -136 -203 -134 -200 -129 -256 13 -136 113 -197 228 -138 38 19 61 46 155 183 60 88 117 171 125 183 l16 23 84 -42 c179 -90 342 -140 530 -164 l95 -12 5 -246 c5 -228 6 -248 25 -268 31 -35 70 -50 125 -50 60 0 97 17 135 62 l27 32 -7 232 -7 233 33 5 c261 38 406 79 579 166 80 40 105 49 111 38 42 -73 250 -366 272 -382 39 -29 125 -29 164 0 33 24 82 109 83 142 0 32 -15 58 -145 257 l-114 174 57 42 c31 24 102 89 158 145 106 106 164 197 164 257 0 79 -83 157 -175 165 -72 6 -99 -11 -200 -126 -244 -277 -501 -435 -820 -504 -133 -29 -414 -36 -564 -14 -339 50 -672 245 -893 524 -72 90 -119 122 -177 121 -25 0 -57 -5 -71 -10z" fill="#8c8686"/>
<path d="M1933 4570 c4 -163 11 -257 26 -340 107 -606 598 -1263 1173 -1569 259 -138 635 -248 966 -282 251 -26 589 -1 827 61 572 150 1046 531 1312 1055 74 146 126 284 163 430 25 97 35 153 55 310 l6 40 -63 -70 c-427 -480 -1042 -803 -1698 -891 -166 -23 -472 -23 -638 0 -485 65 -873 224 -1255 513 -327 248 -561 498 -811 868 l-68 100 5 -225z" fill="#8c8686"/>
</g>
</svg>